# xmcd
#
# Track frame offsets: 
#        150
#        18892
#        33296
#        48879
#        69376
#        87909
#        105823
#        139779
#        172064
#        200436
#        229536
#        250998
#        272676
#        284143
#        312756
#
# Disc length: 4384 seconds
#
# Revision: 0
# Processed by: cddbd v1.5.2PL0 Copyright (c) Steve Scherf et al.
# Submitted via: ExactAudioCopyFreeDBPlugin 1.0
#
DISCID=c6111e0f
DTITLE=Lightnin' Hopkins - The Acoustic Years Disc 4
DYEAR=1900
DGENRE=Blues
TTITLE0=Down There Baby
TTITLE1=Rainy Highway
TTITLE2=When My First Wife Quit Me
TTITLE3=Walk On
TTITLE4=Lightnin's Guitar Boogie
TTITLE5=I've Had My Fun If I Don't Get Well No More
TTITLE6=Mister Charlie
TTITLE7=Mighty Crazy
TTITLE8=Wonder Why
TTITLE9=Black Cat
TTITLE10=The Trouble Blues
TTITLE11=Your Own Fault, Baby, To Treat Me The Way You Do
TTITLE12=Lightnin's Piano Boogie
TTITLE13=Take It Easy
TTITLE14=Come Go Home With Me
EXTD=
EXTT0=
EXTT1=
EXTT2=
EXTT3=
EXTT4=
EXTT5=
EXTT6=
EXTT7=
EXTT8=
EXTT9=
EXTT10=
EXTT11=
EXTT12=
EXTT13=
EXTT14=
PLAYORDER=
